<svg xmlns="http://www.w3.org/2000/svg" width="1920" height="1080">
  <defs>
    <!-- Fondo oscuro energético -->
    <linearGradient id="bg-energy" x1="0%" y1="0%" x2="100%" y2="100%">
      <stop offset="0%" stop-color="#000000"/>
      <stop offset="50%" stop-color="#0A0A1A"/>
      <stop offset="100%" stop-color="#000000"/>
    </linearGradient>
    
    <!-- Gradiente eléctrico azul brillante -->
    <linearGradient id="energy-blue" x1="0%" y1="0%" x2="100%" y2="100%">
      <stop offset="0%" stop-color="#00AAFF"/>
      <stop offset="50%" stop-color="#00D9FF"/>
      <stop offset="100%" stop-color="#00FFFF"/>
    </linearGradient>
    
    <!-- Gradiente eléctrico amarillo -->
    <linearGradient id="energy-yellow" x1="0%" y1="0%" x2="100%" y2="100%">
      <stop offset="0%" stop-color="#FFD700"/>
      <stop offset="50%" stop-color="#FFFF00"/>
      <stop offset="100%" stop-color="#FFAA00"/>
    </linearGradient>
    
    <!-- Gradiente eléctrico blanco brillante -->
    <linearGradient id="energy-white" x1="0%" y1="0%" x2="0%" y2="100%">
      <stop offset="0%" stop-color="#FFFFFF" stop-opacity="1"/>
      <stop offset="50%" stop-color="#FFFFFF" stop-opacity="0.9"/>
      <stop offset="100%" stop-color="#FFFFFF" stop-opacity="0.5"/>
    </linearGradient>
    
    <!-- Spotlight eléctrico -->
    <radialGradient id="energy-spot" cx="50%" cy="40%">
      <stop offset="0%" stop-color="rgba(0,217,255,0.3)"/>
      <stop offset="50%" stop-color="rgba(255,255,0,0.2)"/>
      <stop offset="100%" stop-color="rgba(0,217,255,0)"/>
    </radialGradient>
    
    <!-- Filtro de glow eléctrico intenso -->
    <filter id="energy-glow" x="-200%" y="-200%" width="500%" height="500%">
      <feGaussianBlur in="SourceAlpha" stdDeviation="10" result="blur"/>
      <feOffset in="blur" dx="0" dy="0" result="offsetBlur"/>
      <feFlood flood-color="#00D9FF" flood-opacity="0.8"/>
      <feComposite in2="offsetBlur" operator="in" result="cyan"/>
      <feFlood flood-color="#FFFF00" flood-opacity="0.6"/>
      <feComposite in2="offsetBlur" operator="in" result="yellow"/>
      <feMerge>
        <feMergeNode in="cyan"/>
        <feMergeNode in="yellow"/>
        <feMergeNode in="SourceGraphic"/>
      </feMerge>
    </filter>
    
    <!-- Filtro de sombra eléctrica -->
    <filter id="energy-shadow" x="-100%" y="-100%" width="300%" height="300%">
      <feGaussianBlur in="SourceAlpha" stdDeviation="14"/>
      <feOffset dx="0" dy="18" result="offsetblur"/>
      <feComponentTransfer>
        <feFuncA type="linear" slope="0.5"/>
      </feComponentTransfer>
      <feMerge>
        <feMergeNode/>
        <feMergeNode in="SourceGraphic"/>
      </feMerge>
    </filter>
    
    <style>
      @font-face { font-family: Inter; src: local('Inter'), local('Arial'); }
      .headline-main { font: 900 88px/1.05 Inter, system-ui, -apple-system; fill: #FFFFFF; letter-spacing: -1px; filter: url(#energy-glow); }
      .subheadline { font: 600 34px/1.35 Inter, system-ui, -apple-system; fill: #E0FFFF; filter: url(#energy-glow); }
      .chip-text { font: 800 32px/1.2 Inter, system-ui, -apple-system; fill: #FFFFFF; filter: url(#energy-glow); }
      .benefit-text { font: 500 30px/1.4 Inter, system-ui, -apple-system; fill: #E0F0FF; }
      .cta-main { font: 900 50px/1 Inter, system-ui, -apple-system; fill: #000000; text-anchor: middle; }
      .badge-text { font: 900 26px/1.2 Inter, system-ui, -apple-system; fill: #FFFFFF; text-anchor: middle; }
    </style>
    
    <!-- Rayo eléctrico -->
    <g id="lightning-bolt">
      <path d="M 20 0 L 15 25 L 25 25 L 12 55 L 22 55 L 18 80 L 28 80 L 20 0" fill="url(#energy-yellow)" filter="url(#energy-glow)"/>
      <path d="M 20 0 L 16 22 L 24 22 L 13 52 L 21 52 L 18 78 L 26 78 L 20 0" fill="url(#energy-white)" opacity="0.8" filter="url(#energy-glow)"/>
    </g>
    
    <!-- Línea eléctrica -->
    <g id="energy-line">
      <path d="M 0 0 Q 50 10 100 0 T 200 0" stroke="url(#energy-blue)" stroke-width="4" stroke-linecap="round" fill="none" filter="url(#energy-glow)"/>
      <circle cx="100" cy="0" r="8" fill="url(#energy-yellow)" filter="url(#energy-glow)"/>
      <circle cx="0" cy="0" r="6" fill="url(#energy-blue)" filter="url(#energy-glow)"/>
      <circle cx="200" cy="0" r="6" fill="url(#energy-blue)" filter="url(#energy-glow)"/>
    </g>
    
    <!-- Campo energético -->
    <g id="energy-field">
      <circle cx="0" cy="0" r="40" fill="none" stroke="url(#energy-blue)" stroke-width="3" filter="url(#energy-glow)"/>
      <circle cx="0" cy="0" r="30" fill="none" stroke="url(#energy-yellow)" stroke-width="2" opacity="0.7" filter="url(#energy-glow)"/>
      <circle cx="0" cy="0" r="20" fill="url(#energy-blue)" opacity="0.3" filter="url(#energy-glow)"/>
    </g>
    
    <!-- CTA con energía -->
    <g id="cta-energy">
      <rect x="0" y="0" width="540" height="114" rx="16" fill="rgba(0,0,0,0.8)"/>
      <rect x="0" y="0" width="540" height="114" rx="16" fill="url(#energy-blue)" opacity="0.2"/>
      <rect x="0" y="0" width="540" height="57" rx="16" fill="rgba(0,217,255,0.15)"/>
      <rect x="0" y="0" width="540" height="114" rx="16" fill="none" stroke="url(#energy-blue)" stroke-width="4" filter="url(#energy-glow)"/>
      <!-- Rayos decorativos en CTA -->
      <use href="#lightning-bolt" transform="translate(30,57) scale(0.4)"/>
      <use href="#lightning-bolt" transform="translate(510,57) scale(0.4) rotate(180)"/>
    </g>
  </defs>
  
  <rect width="1920" height="1080" fill="url(#bg-energy)"/>
  
  <!-- Spotlight eléctrico -->
  <rect width="1920" height="1080" fill="url(#energy-spot)"/>
  
  <!-- Campos energéticos decorativos -->
  <g opacity="0.5">
    <use href="#energy-field" transform="translate(300,200)"/>
    <use href="#energy-field" transform="translate(800,250)"/>
    <use href="#energy-field" transform="translate(1300,220)"/>
    <use href="#energy-field" transform="translate(400,850)"/>
    <use href="#energy-field" transform="translate(1200,880)"/>
  </g>
  
  <!-- Rayos eléctricos decorativos -->
  <g opacity="0.6">
    <use href="#lightning-bolt" transform="translate(250,180) scale(1.2) rotate(-15)"/>
    <use href="#lightning-bolt" transform="translate(750,220) scale(1) rotate(20)"/>
    <use href="#lightning-bolt" transform="translate(1250,200) scale(1.3) rotate(-10)"/>
    <use href="#lightning-bolt" transform="translate(350,800) scale(1.1) rotate(15)"/>
    <use href="#lightning-bolt" transform="translate(1150,820) scale(1.2) rotate(-25)"/>
  </g>
  
  <!-- Líneas eléctricas decorativas -->
  <g opacity="0.5">
    <use href="#energy-line" transform="translate(200,150)"/>
    <use href="#energy-line" transform="translate(1600,850) rotate(90)"/>
    <use href="#energy-line" transform="translate(400,750) rotate(45)"/>
  </g>
  
  <!-- Zona segura YouTube -->
  <rect x="120" y="80" width="1680" height="920" rx="24" fill="none" stroke="url(#energy-blue)" stroke-width="2" opacity="0.3" filter="url(#energy-glow)"/>
  
  <!-- Header con energía -->
  <g transform="translate(120,80)" filter="url(#energy-shadow)">
    <rect x="0" y="0" width="1240" height="88" rx="14" fill="rgba(0,0,0,0.7)"/>
    <rect x="0" y="0" width="1240" height="88" rx="14" fill="url(#energy-blue)" opacity="0.15"/>
    <rect x="0" y="0" width="1240" height="44" rx="14" fill="rgba(0,217,255,0.1)"/>
    <rect x="0" y="0" width="1240" height="88" rx="14" fill="none" stroke="url(#energy-blue)" stroke-width="4" filter="url(#energy-glow)"/>
    <use href="#lightning-bolt" transform="translate(50,44) scale(0.35)"/>
    <use href="#lightning-bolt" transform="translate(1190,44) scale(0.35) rotate(180)"/>
    <text x="620" y="62" text-anchor="middle" class="headline-main">[FECHA] [HORA]</text>
  </g>
  
  <!-- Título principal con energía -->
  <g transform="translate(120,240)" filter="url(#energy-shadow)">
    <text x="960" y="0" text-anchor="middle" class="headline-main">Webinar Exclusivo</text>
    <text x="960" y="60" text-anchor="middle" class="subheadline">Descubre el Futuro de la IA</text>
  </g>
  
  <!-- Chip fecha/hora con energía -->
  <g transform="translate(1580,80)" filter="url(#energy-shadow)">
    <rect x="0" y="0" width="220" height="64" rx="18" fill="rgba(0,0,0,0.8)" stroke="url(#energy-blue)" stroke-width="4" filter="url(#energy-glow)"/>
    <use href="#lightning-bolt" transform="translate(15,32) scale(0.25)"/>
    <use href="#lightning-bolt" transform="translate(205,32) scale(0.25) rotate(180)"/>
    <text x="110" y="42" text-anchor="middle" class="chip-text">[HORA]</text>
  </g>
  
  <!-- Benefits con energía -->
  <g transform="translate(120,400)">
    <g transform="translate(0,0)" filter="url(#energy-shadow)">
      <rect x="0" y="0" width="420" height="120" rx="16" fill="rgba(0,0,0,0.6)"/>
      <rect x="0" y="0" width="420" height="120" rx="16" fill="url(#energy-blue)" opacity="0.1"/>
      <rect x="0" y="0" width="420" height="120" rx="16" fill="none" stroke="url(#energy-blue)" stroke-width="3" filter="url(#energy-glow)"/>
      <use href="#lightning-bolt" transform="translate(40,40) scale(0.5)"/>
      <text x="80" y="45" class="benefit-text">✓ Beneficio Principal 1</text>
      <text x="80" y="85" class="benefit-text" fill="#B8D8FF">Descripción breve y poderosa</text>
    </g>
    <g transform="translate(460,0)" filter="url(#energy-shadow)">
      <rect x="0" y="0" width="420" height="120" rx="16" fill="rgba(0,0,0,0.6)"/>
      <rect x="0" y="0" width="420" height="120" rx="16" fill="url(#energy-yellow)" opacity="0.1"/>
      <rect x="0" y="0" width="420" height="120" rx="16" fill="none" stroke="url(#energy-yellow)" stroke-width="3" filter="url(#energy-glow)"/>
      <use href="#lightning-bolt" transform="translate(40,40) scale(0.5) rotate(90)"/>
      <text x="80" y="45" class="benefit-text">✓ Beneficio Principal 2</text>
      <text x="80" y="85" class="benefit-text" fill="#FFFFB8">Descripción breve y poderosa</text>
    </g>
    <g transform="translate(920,0)" filter="url(#energy-shadow)">
      <rect x="0" y="0" width="420" height="120" rx="16" fill="rgba(0,0,0,0.6)"/>
      <rect x="0" y="0" width="420" height="120" rx="16" fill="url(#energy-blue)" opacity="0.1"/>
      <rect x="0" y="0" width="420" height="120" rx="16" fill="none" stroke="url(#energy-blue)" stroke-width="3" filter="url(#energy-glow)"/>
      <use href="#lightning-bolt" transform="translate(40,40) scale(0.5) rotate(-90)"/>
      <text x="80" y="45" class="benefit-text">✓ Beneficio Principal 3</text>
      <text x="80" y="85" class="benefit-text" fill="#B8D8FF">Descripción breve y poderosa</text>
    </g>
  </g>
  
  <!-- CTA con energía ultra destacado -->
  <g transform="translate(690,600)" filter="url(#energy-shadow)">
    <use href="#cta-energy"/>
    <text x="270" y="72" text-anchor="middle" class="cta-main">REGISTRARME AHORA</text>
    <polygon points="490,57 510,57 500,67 510,57 500,47" fill="#FFFFFF" opacity="0.9"/>
  </g>
  
  <!-- Badges con energía -->
  <g transform="translate(120,760)">
    <g filter="url(#energy-shadow)">
      <rect x="0" y="0" width="200" height="56" rx="14" fill="rgba(0,217,255,0.2)" stroke="url(#energy-blue)" stroke-width="3" filter="url(#energy-glow)"/>
      <use href="#lightning-bolt" transform="translate(15,28) scale(0.3)"/>
      <text x="100" y="38" text-anchor="middle" class="badge-text">🔥 Cupos limitados</text>
    </g>
    <g transform="translate(240,0)" filter="url(#energy-shadow)">
      <rect x="0" y="0" width="200" height="56" rx="14" fill="rgba(255,255,0,0.2)" stroke="url(#energy-yellow)" stroke-width="3" filter="url(#energy-glow)"/>
      <use href="#lightning-bolt" transform="translate(15,28) scale(0.3) rotate(90)"/>
      <text x="100" y="38" text-anchor="middle" class="badge-text">🎤 En vivo + Q&A</text>
    </g>
  </g>
  
  <!-- Logo placeholder con energía -->
  <g transform="translate(1580,920)">
    <rect x="0" y="0" width="220" height="80" rx="12" fill="rgba(255,255,255,0.1)" stroke="url(#energy-blue)" stroke-width="2" opacity="0.6" filter="url(#energy-glow)"/>
    <text x="110" y="50" text-anchor="middle" fill="#FFFFFF" font-family="Inter" font-size="18" font-weight="600">TU LOGO</text>
  </g>
  
  <!-- QR con energía -->
  <g transform="translate(120,920)">
    <rect x="0" y="0" width="80" height="80" rx="10" fill="#FFFFFF" stroke="url(#energy-blue)" stroke-width="3" filter="url(#energy-glow)"/>
    <use href="#energy-field" transform="translate(40,40) scale(0.3)"/>
    <text x="40" y="95" text-anchor="middle" fill="#FFFFFF" font-family="Inter" font-size="12" font-weight="500">[URL]</text>
  </g>
  
  <!-- Pie legal -->
  <text x="960" y="1060" text-anchor="middle" fill="#666666" font-family="Inter" font-size="14" font-weight="400">Términos y condiciones aplican</text>
</svg>
