<svg xmlns="http://www.w3.org/2000/svg" width="1080" height="1080">
  <defs>
    <linearGradient id="bg-energy" x1="0%" y1="0%" x2="100%" y2="100%">
      <stop offset="0%" stop-color="#000000"/>
      <stop offset="50%" stop-color="#0A0A1A"/>
      <stop offset="100%" stop-color="#000000"/>
    </linearGradient>
    <linearGradient id="energy-blue" x1="0%" y1="0%" x2="100%" y2="100%">
      <stop offset="0%" stop-color="#00AAFF"/>
      <stop offset="50%" stop-color="#00D9FF"/>
      <stop offset="100%" stop-color="#00FFFF"/>
    </linearGradient>
    <linearGradient id="energy-yellow" x1="0%" y1="0%" x2="100%" y2="100%">
      <stop offset="0%" stop-color="#FFD700"/>
      <stop offset="50%" stop-color="#FFFF00"/>
      <stop offset="100%" stop-color="#FFAA00"/>
    </linearGradient>
    <radialGradient id="energy-spot" cx="50%" cy="40%">
      <stop offset="0%" stop-color="rgba(0,217,255,0.3)"/>
      <stop offset="50%" stop-color="rgba(255,255,0,0.2)"/>
      <stop offset="100%" stop-color="rgba(0,217,255,0)"/>
    </radialGradient>
    <filter id="energy-glow" x="-200%" y="-200%" width="500%" height="500%">
      <feGaussianBlur in="SourceAlpha" stdDeviation="6" result="blur"/>
      <feOffset in="blur" dx="0" dy="0" result="offsetBlur"/>
      <feFlood flood-color="#00D9FF" flood-opacity="0.8"/>
      <feComposite in2="offsetBlur" operator="in" result="cyan"/>
      <feFlood flood-color="#FFFF00" flood-opacity="0.6"/>
      <feComposite in2="offsetBlur" operator="in" result="yellow"/>
      <feMerge>
        <feMergeNode in="cyan"/>
        <feMergeNode in="yellow"/>
        <feMergeNode in="SourceGraphic"/>
      </feMerge>
    </filter>
    <filter id="energy-shadow" x="-100%" y="-100%" width="300%" height="300%">
      <feGaussianBlur in="SourceAlpha" stdDeviation="10"/>
      <feOffset dx="0" dy="12" result="offsetblur"/>
      <feComponentTransfer>
        <feFuncA type="linear" slope="0.5"/>
      </feComponentTransfer>
      <feMerge>
        <feMergeNode/>
        <feMergeNode in="SourceGraphic"/>
      </feMerge>
    </filter>
    <style>
      @font-face { font-family: Inter; src: local('Inter'), local('Arial'); }
      .headline { font: 900 52px/1.1 Inter, system-ui, -apple-system; fill: #FFFFFF; letter-spacing: -1px; text-anchor: middle; filter: url(#energy-glow); }
      .subhead { font: 600 22px/1.3 Inter, system-ui, -apple-system; fill: #E0FFFF; text-anchor: middle; filter: url(#energy-glow); }
      .chip { font: 800 20px/1.2 Inter, system-ui, -apple-system; fill: #FFFFFF; text-anchor: middle; }
      .cta-text { font: 900 36px/1 Inter, system-ui, -apple-system; fill: #000000; text-anchor: middle; }
      .benefit { font: 500 18px/1.4 Inter, system-ui, -apple-system; fill: #E0F0FF; }
    </style>
    <g id="lightning-bolt">
      <path d="M 20 0 L 15 22 L 25 22 L 12 48 L 22 48 L 18 70 L 28 70 L 20 0" fill="url(#energy-yellow)" filter="url(#energy-glow)"/>
      <path d="M 20 0 L 16 20 L 24 20 L 13 46 L 21 46 L 18 68 L 26 68 L 20 0" fill="#FFFFFF" opacity="0.8" filter="url(#energy-glow)"/>
    </g>
    <g id="energy-field">
      <circle cx="0" cy="0" r="30" fill="none" stroke="url(#energy-blue)" stroke-width="2.5" filter="url(#energy-glow)"/>
      <circle cx="0" cy="0" r="22" fill="none" stroke="url(#energy-yellow)" stroke-width="2" opacity="0.7" filter="url(#energy-glow)"/>
      <circle cx="0" cy="0" r="15" fill="url(#energy-blue)" opacity="0.3" filter="url(#energy-glow)"/>
    </g>
    <g id="cta-energy">
      <rect x="0" y="0" width="360" height="80" rx="14" fill="rgba(0,0,0,0.8)"/>
      <rect x="0" y="0" width="360" height="80" rx="14" fill="url(#energy-blue)" opacity="0.2"/>
      <rect x="0" y="0" width="360" height="40" rx="14" fill="rgba(0,217,255,0.15)"/>
      <rect x="0" y="0" width="360" height="80" rx="14" fill="none" stroke="url(#energy-blue)" stroke-width="3" filter="url(#energy-glow)"/>
      <use href="#lightning-bolt" transform="translate(25,40) scale(0.35)"/>
      <use href="#lightning-bolt" transform="translate(335,40) scale(0.35) rotate(180)"/>
    </g>
  </defs>
  <rect width="1080" height="1080" fill="url(#bg-energy)"/>
  <rect width="1080" height="1080" fill="url(#energy-spot)"/>
  <g opacity="0.4">
    <use href="#energy-field" transform="translate(300,200) scale(1.2)"/>
    <use href="#energy-field" transform="translate(700,250) scale(1)"/>
    <use href="#energy-field" transform="translate(400,850) scale(1.1)"/>
    <use href="#energy-field" transform="translate(800,880) scale(1.3)"/>
  </g>
  <g opacity="0.5">
    <use href="#lightning-bolt" transform="translate(250,180) scale(0.9) rotate(-15)"/>
    <use href="#lightning-bolt" transform="translate(650,220) scale(0.8) rotate(20)"/>
    <use href="#lightning-bolt" transform="translate(350,850) scale(0.85) rotate(15)"/>
    <use href="#lightning-bolt" transform="translate(850,880) scale(0.9) rotate(-25)"/>
  </g>
  <g transform="translate(60,60)" filter="url(#energy-shadow)">
    <rect x="0" y="0" width="960" height="70" rx="12" fill="rgba(0,0,0,0.7)"/>
    <rect x="0" y="0" width="960" height="70" rx="12" fill="url(#energy-blue)" opacity="0.15"/>
    <rect x="0" y="0" width="960" height="35" rx="12" fill="rgba(0,217,255,0.1)"/>
    <rect x="0" y="0" width="960" height="70" rx="12" fill="none" stroke="url(#energy-blue)" stroke-width="3" filter="url(#energy-glow)"/>
    <use href="#lightning-bolt" transform="translate(35,35) scale(0.3)"/>
    <use href="#lightning-bolt" transform="translate(925,35) scale(0.3) rotate(180)"/>
    <text x="480" y="47" text-anchor="middle" fill="#FFFFFF" font-family="Inter" font-size="22" font-weight="900">[FECHA] [HORA]</text>
  </g>
  <g transform="translate(540,200)">
    <text x="0" y="0" class="headline">Webinar Exclusivo</text>
    <text x="0" y="35" class="subhead">Descubre el Futuro de la IA</text>
  </g>
  <g transform="translate(540,320)">
    <g transform="translate(-200,-40)" filter="url(#energy-shadow)">
      <rect x="0" y="0" width="180" height="70" rx="16" fill="rgba(0,0,0,0.6)"/>
      <rect x="0" y="0" width="180" height="70" rx="16" fill="url(#energy-blue)" opacity="0.1"/>
      <rect x="0" y="0" width="180" height="70" rx="16" fill="none" stroke="url(#energy-blue)" stroke-width="3" filter="url(#energy-glow)"/>
      <use href="#lightning-bolt" transform="translate(25,25) scale(0.4)"/>
      <text x="50" y="30" class="benefit">✓ Beneficio 1</text>
      <text x="50" y="55" class="benefit" fill="#B8D8FF" font-size="14">Descripción</text>
    </g>
    <g transform="translate(0,-40)" filter="url(#energy-shadow)">
      <rect x="0" y="0" width="180" height="70" rx="16" fill="rgba(0,0,0,0.6)"/>
      <rect x="0" y="0" width="180" height="70" rx="16" fill="url(#energy-yellow)" opacity="0.1"/>
      <rect x="0" y="0" width="180" height="70" rx="16" fill="none" stroke="url(#energy-yellow)" stroke-width="3" filter="url(#energy-glow)"/>
      <use href="#lightning-bolt" transform="translate(25,25) scale(0.4) rotate(90)"/>
      <text x="50" y="30" class="benefit">✓ Beneficio 2</text>
      <text x="50" y="55" class="benefit" fill="#FFFFB8" font-size="14">Descripción</text>
    </g>
    <g transform="translate(200,-40)" filter="url(#energy-shadow)">
      <rect x="0" y="0" width="180" height="70" rx="16" fill="rgba(0,0,0,0.6)"/>
      <rect x="0" y="0" width="180" height="70" rx="16" fill="url(#energy-blue)" opacity="0.1"/>
      <rect x="0" y="0" width="180" height="70" rx="16" fill="none" stroke="url(#energy-blue)" stroke-width="3" filter="url(#energy-glow)"/>
      <use href="#lightning-bolt" transform="translate(25,25) scale(0.4) rotate(-90)"/>
      <text x="50" y="30" class="benefit">✓ Beneficio 3</text>
      <text x="50" y="55" class="benefit" fill="#B8D8FF" font-size="14">Descripción</text>
    </g>
  </g>
  <g transform="translate(540,480)" filter="url(#energy-shadow)">
    <use href="#cta-energy"/>
    <text x="180" y="50" class="cta-text">REGISTRARME</text>
  </g>
  <g transform="translate(540,600)">
    <g transform="translate(-120,0)" filter="url(#energy-shadow)">
      <rect x="0" y="0" width="140" height="48" rx="12" fill="rgba(0,217,255,0.2)" stroke="url(#energy-blue)" stroke-width="2.5" filter="url(#energy-glow)"/>
      <use href="#lightning-bolt" transform="translate(12,24) scale(0.25)"/>
      <text x="70" y="32" text-anchor="middle" fill="#FFFFFF" font-family="Inter" font-size="18" font-weight="900">🔥 Cupos</text>
    </g>
    <g transform="translate(120,0)" filter="url(#energy-shadow)">
      <rect x="0" y="0" width="140" height="48" rx="12" fill="rgba(255,255,0,0.2)" stroke="url(#energy-yellow)" stroke-width="2.5" filter="url(#energy-glow)"/>
      <use href="#lightning-bolt" transform="translate(12,24) scale(0.25) rotate(90)"/>
      <text x="70" y="32" text-anchor="middle" fill="#FFFFFF" font-family="Inter" font-size="18" font-weight="900">🎤 En vivo</text>
    </g>
  </g>
  <g transform="translate(540,700)">
    <g transform="translate(-120,-40)">
      <rect x="0" y="0" width="70" height="70" rx="10" fill="#FFFFFF" stroke="url(#energy-blue)" stroke-width="3" filter="url(#energy-glow)"/>
      <use href="#energy-field" transform="translate(35,35) scale(0.25)"/>
      <text x="35" y="85" text-anchor="middle" fill="#FFFFFF" font-family="Inter" font-size="11" font-weight="500">[URL]</text>
    </g>
    <g transform="translate(50,-40)">
      <rect x="0" y="0" width="240" height="70" rx="12" fill="rgba(255,255,255,0.1)" stroke="url(#energy-blue)" stroke-width="2.5" opacity="0.6" filter="url(#energy-glow)"/>
      <text x="120" y="43" text-anchor="middle" fill="#FFFFFF" font-family="Inter" font-size="16" font-weight="600">TU LOGO</text>
    </g>
  </g>
  <text x="540" y="1050" text-anchor="middle" fill="#666666" font-family="Inter" font-size="12" font-weight="400">Términos y condiciones aplican</text>
</svg>
