<svg xmlns="http://www.w3.org/2000/svg" width="1920" height="1080">
  <defs>
    <!-- Fondo oscuro nocturno -->
    <linearGradient id="bg-aurora" x1="0%" y1="0%" x2="100%" y2="100%">
      <stop offset="0%" stop-color="#000510"/>
      <stop offset="50%" stop-color="#001020"/>
      <stop offset="100%" stop-color="#000510"/>
    </linearGradient>
    
    <!-- Aurora verde -->
    <linearGradient id="aurora-green" x1="0%" y1="0%" x2="100%" y2="0%">
      <stop offset="0%" stop-color="#00FF88" stop-opacity="0"/>
      <stop offset="30%" stop-color="#00FF88" stop-opacity="0.6"/>
      <stop offset="50%" stop-color="#00FFAA" stop-opacity="0.8"/>
      <stop offset="70%" stop-color="#00FF88" stop-opacity="0.6"/>
      <stop offset="100%" stop-color="#00FF88" stop-opacity="0"/>
    </linearGradient>
    
    <!-- Aurora azul -->
    <linearGradient id="aurora-blue" x1="0%" y1="0%" x2="100%" y2="0%">
      <stop offset="0%" stop-color="#00AAFF" stop-opacity="0"/>
      <stop offset="40%" stop-color="#00AAFF" stop-opacity="0.5"/>
      <stop offset="60%" stop-color="#00CCFF" stop-opacity="0.7"/>
      <stop offset="80%" stop-color="#00AAFF" stop-opacity="0.5"/>
      <stop offset="100%" stop-color="#00AAFF" stop-opacity="0"/>
    </linearGradient>
    
    <!-- Aurora púrpura -->
    <linearGradient id="aurora-purple" x1="0%" y1="0%" x2="100%" y2="0%">
      <stop offset="0%" stop-color="#AA00FF" stop-opacity="0"/>
      <stop offset="35%" stop-color="#AA00FF" stop-opacity="0.4"/>
      <stop offset="55%" stop-color="#CC00FF" stop-opacity="0.6"/>
      <stop offset="75%" stop-color="#AA00FF" stop-opacity="0.4"/>
      <stop offset="100%" stop-color="#AA00FF" stop-opacity="0"/>
    </linearGradient>
    
    <!-- Forma de onda aurora 1 -->
    <path id="aurora-wave-1" d="M 0 200 Q 200 150 400 180 T 800 160 T 1200 170 T 1600 175 T 1920 165 L 1920 300 Q 1600 280 1200 290 Q 800 285 400 295 Q 200 300 0 290 Z" fill="url(#aurora-green)" opacity="0.6" filter="url(#aurora-blur)"/>
    
    <!-- Forma de onda aurora 2 -->
    <path id="aurora-wave-2" d="M 0 250 Q 300 200 600 220 T 1200 210 T 1800 225 T 1920 215 L 1920 350 Q 1800 340 1200 345 Q 600 335 300 340 Q 150 345 0 335 Z" fill="url(#aurora-blue)" opacity="0.5" filter="url(#aurora-blur)"/>
    
    <!-- Forma de onda aurora 3 -->
    <path id="aurora-wave-3" d="M 0 280 Q 400 230 800 250 T 1600 240 T 1920 250 L 1920 380 Q 1600 370 800 375 Q 400 370 0 365 Z" fill="url(#aurora-purple)" opacity="0.4" filter="url(#aurora-blur)"/>
    
    <!-- Filtro de blur para aurora -->
    <filter id="aurora-blur" x="-50%" y="-50%" width="200%" height="200%">
      <feGaussianBlur in="SourceGraphic" stdDeviation="15" result="blur"/>
      <feMerge>
        <feMergeNode in="blur"/>
        <feMergeNode in="SourceGraphic"/>
      </feMerge>
    </filter>
    
    <!-- Filtro de glow aurora -->
    <filter id="aurora-glow" x="-200%" y="-200%" width="500%" height="500%">
      <feGaussianBlur in="SourceAlpha" stdDeviation="12" result="blur"/>
      <feOffset in="blur" dx="0" dy="0" result="offsetBlur"/>
      <feFlood flood-color="#00FF88" flood-opacity="0.6"/>
      <feComposite in2="offsetBlur" operator="in" result="green"/>
      <feFlood flood-color="#00AAFF" flood-opacity="0.4"/>
      <feComposite in2="offsetBlur" operator="in" result="blue"/>
      <feMerge>
        <feMergeNode in="green"/>
        <feMergeNode in="blue"/>
        <feMergeNode in="SourceGraphic"/>
      </feMerge>
    </filter>
    
    <!-- Filtro de sombra aurora -->
    <filter id="aurora-shadow" x="-100%" y="-100%" width="300%" height="300%">
      <feGaussianBlur in="SourceAlpha" stdDeviation="14"/>
      <feOffset dx="0" dy="18" result="offsetblur"/>
      <feComponentTransfer>
        <feFuncA type="linear" slope="0.5"/>
      </feComponentTransfer>
      <feMerge>
        <feMergeNode/>
        <feMergeNode in="SourceGraphic"/>
      </feMerge>
    </filter>
    
    <style>
      @font-face { font-family: Inter; src: local('Inter'), local('Arial'); }
      .headline-main { font: 900 88px/1.05 Inter, system-ui, -apple-system; fill: #FFFFFF; letter-spacing: -1px; filter: url(#aurora-glow); }
      .subheadline { font: 600 34px/1.35 Inter, system-ui, -apple-system; fill: #E0FFE8; filter: url(#aurora-glow); }
      .chip-text { font: 800 32px/1.2 Inter, system-ui, -apple-system; fill: #FFFFFF; filter: url(#aurora-glow); }
      .benefit-text { font: 500 30px/1.4 Inter, system-ui, -apple-system; fill: #E0FFF0; }
      .cta-main { font: 900 50px/1 Inter, system-ui, -apple-system; fill: #000000; text-anchor: middle; }
      .badge-text { font: 900 26px/1.2 Inter, system-ui, -apple-system; fill: #FFFFFF; text-anchor: middle; }
    </style>
    
    <!-- Estrella -->
    <g id="star-aurora">
      <path d="M 20 5 L 24 16 L 35 16 L 26 23 L 30 34 L 20 27 L 10 34 L 14 23 L 5 16 L 16 16 Z" fill="#FFFFFF" opacity="0.9" filter="url(#aurora-glow)"/>
      <circle cx="20" cy="20" r="2" fill="#00FF88" filter="url(#aurora-glow)"/>
    </g>
    
    <!-- CTA con aurora -->
    <g id="cta-aurora">
      <rect x="0" y="0" width="540" height="114" rx="20" fill="rgba(0,0,0,0.8)"/>
      <rect x="0" y="0" width="540" height="114" rx="20" fill="url(#aurora-green)" opacity="0.2"/>
      <rect x="0" y="0" width="540" height="57" rx="20" fill="rgba(0,255,136,0.15)"/>
      <rect x="0" y="0" width="540" height="114" rx="20" fill="none" stroke="url(#aurora-green)" stroke-width="3" filter="url(#aurora-glow)"/>
    </g>
  </defs>
  
  <rect width="1920" height="1080" fill="url(#bg-aurora)"/>
  
  <!-- Auroras de fondo -->
  <use href="#aurora-wave-1"/>
  <use href="#aurora-wave-2"/>
  <use href="#aurora-wave-3"/>
  
  <!-- Estrellas decorativas -->
  <g opacity="0.8">
    <use href="#star-aurora" transform="translate(200,150) scale(0.4)"/>
    <use href="#star-aurora" transform="translate(400,180) scale(0.3)"/>
    <use href="#star-aurora" transform="translate(600,160) scale(0.35)"/>
    <use href="#star-aurora" transform="translate(800,170) scale(0.3)"/>
    <use href="#star-aurora" transform="translate(1200,155) scale(0.4)"/>
    <use href="#star-aurora" transform="translate(1400,165) scale(0.35)"/>
    <use href="#star-aurora" transform="translate(1600,160) scale(0.3)"/>
    <use href="#star-aurora" transform="translate(1800,175) scale(0.4)"/>
    <use href="#star-aurora" transform="translate(250,850) scale(0.35)"/>
    <use href="#star-aurora" transform="translate(450,880) scale(0.3)"/>
    <use href="#star-aurora" transform="translate(750,870) scale(0.4)"/>
    <use href="#star-aurora" transform="translate(1100,860) scale(0.35)"/>
    <use href="#star-aurora" transform="translate(1400,875) scale(0.3)"/>
    <use href="#star-aurora" transform="translate(1700,865) scale(0.4)"/>
  </g>
  
  <!-- Zona segura YouTube -->
  <rect x="120" y="80" width="1680" height="920" rx="24" fill="none" stroke="url(#aurora-green)" stroke-width="2" opacity="0.3" filter="url(#aurora-glow)"/>
  
  <!-- Header con aurora -->
  <g transform="translate(120,80)" filter="url(#aurora-shadow)">
    <rect x="0" y="0" width="1240" height="88" rx="16" fill="rgba(0,0,0,0.7)"/>
    <rect x="0" y="0" width="1240" height="88" rx="16" fill="url(#aurora-green)" opacity="0.15"/>
    <rect x="0" y="0" width="1240" height="44" rx="16" fill="rgba(0,255,136,0.1)"/>
    <rect x="0" y="0" width="1240" height="88" rx="16" fill="none" stroke="url(#aurora-green)" stroke-width="3" filter="url(#aurora-glow)"/>
    <use href="#star-aurora" transform="translate(50,44) scale(0.25)"/>
    <use href="#star-aurora" transform="translate(1190,44) scale(0.25)"/>
    <text x="620" y="62" text-anchor="middle" class="headline-main">[FECHA] [HORA]</text>
  </g>
  
  <!-- Título principal -->
  <g transform="translate(120,240)" filter="url(#aurora-shadow)">
    <text x="960" y="0" text-anchor="middle" class="headline-main">Webinar Exclusivo</text>
    <text x="960" y="60" text-anchor="middle" class="subheadline">Descubre el Futuro de la IA</text>
  </g>
  
  <!-- Chip fecha/hora -->
  <g transform="translate(1580,80)" filter="url(#aurora-shadow)">
    <rect x="0" y="0" width="220" height="64" rx="18" fill="rgba(0,0,0,0.8)" stroke="url(#aurora-green)" stroke-width="3" filter="url(#aurora-glow)"/>
    <use href="#star-aurora" transform="translate(15,32) scale(0.2)"/>
    <text x="110" y="42" text-anchor="middle" class="chip-text">[HORA]</text>
  </g>
  
  <!-- Benefits con aurora -->
  <g transform="translate(120,400)">
    <g transform="translate(0,0)" filter="url(#aurora-shadow)">
      <rect x="0" y="0" width="420" height="120" rx="18" fill="rgba(0,0,0,0.6)"/>
      <rect x="0" y="0" width="420" height="120" rx="18" fill="url(#aurora-green)" opacity="0.1"/>
      <rect x="0" y="0" width="420" height="120" rx="18" fill="none" stroke="url(#aurora-green)" stroke-width="3" filter="url(#aurora-glow)"/>
      <use href="#star-aurora" transform="translate(40,40) scale(0.3)"/>
      <text x="80" y="45" class="benefit-text">✓ Beneficio Principal 1</text>
      <text x="80" y="85" class="benefit-text" fill="#B8FFD8">Descripción breve y poderosa</text>
    </g>
    <g transform="translate(460,0)" filter="url(#aurora-shadow)">
      <rect x="0" y="0" width="420" height="120" rx="18" fill="rgba(0,0,0,0.6)"/>
      <rect x="0" y="0" width="420" height="120" rx="18" fill="url(#aurora-blue)" opacity="0.1"/>
      <rect x="0" y="0" width="420" height="120" rx="18" fill="none" stroke="url(#aurora-blue)" stroke-width="3" filter="url(#aurora-glow)"/>
      <use href="#star-aurora" transform="translate(40,40) scale(0.3)"/>
      <text x="80" y="45" class="benefit-text">✓ Beneficio Principal 2</text>
      <text x="80" y="85" class="benefit-text" fill="#B8D8FF">Descripción breve y poderosa</text>
    </g>
    <g transform="translate(920,0)" filter="url(#aurora-shadow)">
      <rect x="0" y="0" width="420" height="120" rx="18" fill="rgba(0,0,0,0.6)"/>
      <rect x="0" y="0" width="420" height="120" rx="18" fill="url(#aurora-purple)" opacity="0.1"/>
      <rect x="0" y="0" width="420" height="120" rx="18" fill="none" stroke="url(#aurora-purple)" stroke-width="3" filter="url(#aurora-glow)"/>
      <use href="#star-aurora" transform="translate(40,40) scale(0.3)"/>
      <text x="80" y="45" class="benefit-text">✓ Beneficio Principal 3</text>
      <text x="80" y="85" class="benefit-text" fill="#E8B8FF">Descripción breve y poderosa</text>
    </g>
  </g>
  
  <!-- CTA con aurora -->
  <g transform="translate(690,600)" filter="url(#aurora-shadow)">
    <use href="#cta-aurora"/>
    <text x="270" y="72" text-anchor="middle" class="cta-main">REGISTRARME AHORA</text>
    <use href="#star-aurora" transform="translate(40,57) scale(0.25)"/>
    <use href="#star-aurora" transform="translate(500,57) scale(0.25)"/>
    <polygon points="490,57 510,57 500,67 510,57 500,47" fill="#FFFFFF" opacity="0.9"/>
  </g>
  
  <!-- Badges con aurora -->
  <g transform="translate(120,760)">
    <g filter="url(#aurora-shadow)">
      <rect x="0" y="0" width="200" height="56" rx="16" fill="rgba(0,255,136,0.2)" stroke="url(#aurora-green)" stroke-width="3" filter="url(#aurora-glow)"/>
      <use href="#star-aurora" transform="translate(15,28) scale(0.2)"/>
      <text x="100" y="38" text-anchor="middle" class="badge-text">🔥 Cupos limitados</text>
    </g>
    <g transform="translate(240,0)" filter="url(#aurora-shadow)">
      <rect x="0" y="0" width="200" height="56" rx="16" fill="rgba(0,170,255,0.2)" stroke="url(#aurora-blue)" stroke-width="3" filter="url(#aurora-glow)"/>
      <use href="#star-aurora" transform="translate(15,28) scale(0.2)"/>
      <text x="100" y="38" text-anchor="middle" class="badge-text">🎤 En vivo + Q&A</text>
    </g>
  </g>
  
  <!-- Logo placeholder -->
  <g transform="translate(1580,920)">
    <rect x="0" y="0" width="220" height="80" rx="12" fill="rgba(255,255,255,0.1)" stroke="url(#aurora-green)" stroke-width="2" opacity="0.6" filter="url(#aurora-glow)"/>
    <text x="110" y="50" text-anchor="middle" fill="#FFFFFF" font-family="Inter" font-size="18" font-weight="600">TU LOGO</text>
  </g>
  
  <!-- QR -->
  <g transform="translate(120,920)">
    <rect x="0" y="0" width="80" height="80" rx="10" fill="#FFFFFF" stroke="url(#aurora-green)" stroke-width="3" filter="url(#aurora-glow)"/>
    <text x="40" y="95" text-anchor="middle" fill="#FFFFFF" font-family="Inter" font-size="12" font-weight="500">[URL]</text>
  </g>
  
  <!-- Pie legal -->
  <text x="960" y="1060" text-anchor="middle" fill="#666666" font-family="Inter" font-size="14" font-weight="400">Términos y condiciones aplican</text>
</svg>
