<svg xmlns="http://www.w3.org/2000/svg" width="1920" height="1080">
  <defs>
    <linearGradient id="bg" x1="0%" y1="0%" x2="100%" y2="100%">
      <stop offset="0%" stop-color="#0A0E27"/>
      <stop offset="50%" stop-color="#1A1F3D"/>
      <stop offset="100%" stop-color="#0A0E27"/>
    </linearGradient>
    <linearGradient id="accent" x1="0%" y1="0%" x2="100%" y2="0%">
      <stop offset="0%" stop-color="#FF6B9D"/>
      <stop offset="50%" stop-color="#FF8E53"/>
      <stop offset="100%" stop-color="#FFC107"/>
    </linearGradient>
    <linearGradient id="accent-vertical" x1="0%" y1="0%" x2="0%" y2="100%">
      <stop offset="0%" stop-color="#FF6B9D" stop-opacity="0.9"/>
      <stop offset="100%" stop-color="#FF8E53" stop-opacity="0.9"/>
    </linearGradient>
    <filter id="sh-3d" x="-100%" y="-100%" width="300%" height="300%">
      <feGaussianBlur in="SourceAlpha" stdDeviation="10"/>
      <feOffset dx="8" dy="12" result="offsetblur"/>
      <feComponentTransfer>
        <feFuncA type="linear" slope="0.5"/>
      </feComponentTransfer>
      <feMerge>
        <feMergeNode/>
        <feMergeNode in="SourceGraphic"/>
      </feMerge>
    </filter>
    <filter id="glow-3d" x="-150%" y="-150%" width="400%" height="400%">
      <feGaussianBlur stdDeviation="14" result="coloredBlur"/>
      <feMerge>
        <feMergeNode in="coloredBlur"/>
        <feMergeNode in="SourceGraphic"/>
      </feMerge>
    </filter>
    <style>
      @font-face { font-family: Inter; src: local('Inter'), local('Arial'); }
      .headline-3d { font: 900 90px/1.05 Inter, system-ui, -apple-system; fill: #FFFFFF; letter-spacing: -1.5px; }
      .subhead-3d { font: 600 34px/1.4 Inter, system-ui, -apple-system; fill: #FFE5CC; }
      .cta-3d { font: 900 56px/1 Inter, system-ui, -apple-system; fill: #FFFFFF; text-anchor: middle; }
      .layer-text { font: 700 26px/1.3 Inter, system-ui, -apple-system; fill: #FFFFFF; }
    </style>
  </defs>
  
  <rect width="1920" height="1080" fill="url(#bg)"/>
  
  <!-- Capas 3D decorativas -->
  <g opacity="0.15">
    <!-- Capa 1 -->
    <rect x="100" y="80" width="1720" height="1000" rx="30" fill="url(#accent)" filter="url(#sh-3d)"/>
    <!-- Capa 2 -->
    <rect x="140" y="120" width="1640" height="940" rx="30" fill="url(#accent)" opacity="0.7" filter="url(#sh-3d)"/>
    <!-- Capa 3 -->
    <rect x="180" y="160" width="1560" height="880" rx="30" fill="url(#accent)" opacity="0.5" filter="url(#sh-3d)"/>
  </g>
  
  <!-- Header con profundidad 3D -->
  <g transform="translate(120,80)">
    <!-- Sombra profunda -->
    <rect x="8" y="12" width="1680" height="110" rx="20" fill="rgba(0,0,0,0.4)" filter="url(#sh-3d)"/>
    <!-- Capa principal -->
    <rect x="0" y="0" width="1680" height="110" rx="20" fill="url(#accent-vertical)"/>
    <!-- Shine superior -->
    <rect x="0" y="0" width="1680" height="55" rx="20" fill="rgba(255,255,255,0.2)"/>
    <!-- Borde 3D -->
    <rect x="0" y="0" width="1680" height="110" rx="20" fill="none" stroke="rgba(255,255,255,0.4)" stroke-width="2"/>
    <text x="840" y="72" text-anchor="middle" fill="#FFFFFF" font-family="Inter, system-ui, -apple-system" font-size="44" font-weight="900">
      Webinar gratis: Cómo doblar tus ventas online
    </text>
  </g>
  
  <!-- Headline con profundidad -->
  <g transform="translate(160,260)">
    <text x="2" y="2" class="headline-3d" fill="rgba(0,0,0,0.3)">Duplica tus ventas con IA</text>
    <text x="0" y="0" class="headline-3d">Duplica tus ventas con IA</text>
    <text x="0" y="70" class="subhead-3d">Estrategias escalables que funcionan desde el día 1</text>
  </g>
  
  <!-- Cards en capas 3D -->
  <g transform="translate(160,400)">
    <!-- Card 1 -->
    <g filter="url(#sh-3d)">
      <rect x="12" y="12" width="480" height="160" rx="24" fill="rgba(0,0,0,0.3)"/>
      <rect x="0" y="0" width="480" height="160" rx="24" fill="rgba(255,255,255,0.1)"/>
      <rect x="0" y="0" width="480" height="160" rx="24" fill="none" stroke="rgba(255,255,255,0.2)" stroke-width="2"/>
      <rect x="0" y="0" width="480" height="60" rx="24" fill="url(#accent-vertical)" opacity="0.3"/>
      <text x="30" y="42" class="layer-text">🚀 Prompts optimizados</text>
      <text x="30" y="85" fill="#FFE5CC" font-family="Inter" font-size="22">Reduce CPA -35% con plantillas</text>
    </g>
    
    <!-- Card 2 -->
    <g transform="translate(520,0)" filter="url(#sh-3d)">
      <rect x="12" y="12" width="480" height="160" rx="24" fill="rgba(0,0,0,0.3)"/>
      <rect x="0" y="0" width="480" height="160" rx="24" fill="rgba(255,255,255,0.1)"/>
      <rect x="0" y="0" width="480" height="160" rx="24" fill="none" stroke="rgba(255,255,255,0.2)" stroke-width="2"/>
      <rect x="0" y="0" width="480" height="60" rx="24" fill="url(#accent-vertical)" opacity="0.3"/>
      <text x="30" y="42" class="layer-text">🎨 Creatividades IA</text>
      <text x="30" y="85" fill="#FFE5CC" font-family="Inter" font-size="22">Variaciones en minutos</text>
    </g>
    
    <!-- Card 3 -->
    <g transform="translate(1040,0)" filter="url(#sh-3d)">
      <rect x="12" y="12" width="480" height="160" rx="24" fill="rgba(0,0,0,0.3)"/>
      <rect x="0" y="0" width="480" height="160" rx="24" fill="rgba(255,255,255,0.1)"/>
      <rect x="0" y="0" width="480" height="160" rx="24" fill="none" stroke="rgba(255,255,255,0.2)" stroke-width="2"/>
      <rect x="0" y="0" width="480" height="60" rx="24" fill="url(#accent-vertical)" opacity="0.3"/>
      <text x="30" y="42" class="layer-text">⚡ Automatizaciones</text>
      <text x="30" y="85" fill="#FFE5CC" font-family="Inter" font-size="22">Sin código, listo en 1h</text>
    </g>
  </g>
  
  <!-- Chips 3D -->
  <g transform="translate(160,600)">
    <g filter="url(#sh-3d)">
      <rect x="6" y="6" width="420" height="80" rx="16" fill="rgba(0,0,0,0.4)"/>
      <rect x="0" y="0" width="420" height="80" rx="16" fill="rgba(255,255,255,0.12)"/>
      <rect x="0" y="0" width="420" height="80" rx="16" fill="none" stroke="rgba(255,255,255,0.25)" stroke-width="2"/>
      <text x="210" y="52" text-anchor="middle" fill="#FFFFFF" font-family="Inter, system-ui, -apple-system" font-size="32" font-weight="700">15 Nov 2025</text>
    </g>
    <g transform="translate(440,0)" filter="url(#sh-3d)">
      <rect x="6" y="6" width="380" height="80" rx="16" fill="rgba(0,0,0,0.4)"/>
      <rect x="0" y="0" width="380" height="80" rx="16" fill="rgba(255,255,255,0.12)"/>
      <rect x="0" y="0" width="380" height="80" rx="16" fill="none" stroke="rgba(255,255,255,0.25)" stroke-width="2"/>
      <text x="190" y="52" text-anchor="middle" fill="#FFFFFF" font-family="Inter, system-ui, -apple-system" font-size="32" font-weight="700">18:00</text>
    </g>
  </g>
  
  <!-- CTA con profundidad 3D -->
  <g transform="translate(160,720)" filter="url(#glow-3d)">
    <!-- Sombra profunda -->
    <rect x="14" y="14" width="580" height="130" rx="24" fill="rgba(0,0,0,0.5)"/>
    <!-- Capa principal -->
    <rect x="0" y="0" width="580" height="130" rx="24" fill="url(#accent-vertical)"/>
    <!-- Shine -->
    <rect x="0" y="0" width="580" height="65" rx="24" fill="rgba(255,255,255,0.3)"/>
    <!-- Borde 3D -->
    <rect x="0" y="0" width="580" height="130" rx="24" fill="none" stroke="rgba(255,255,255,0.5)" stroke-width="3"/>
    <text x="290" y="85" text-anchor="middle" class="cta-3d">Únete gratis</text>
  </g>
  
  <!-- Badge 3D -->
  <g transform="translate(1540,240)" filter="url(#sh-3d)">
    <rect x="6" y="6" width="260" height="70" rx="18" fill="rgba(0,0,0,0.4)"/>
    <rect x="0" y="0" width="260" height="70" rx="18" fill="#FF3B3B"/>
    <text x="130" y="45" text-anchor="middle" fill="#FFFFFF" font-family="Inter, system-ui, -apple-system" font-size="26" font-weight="900">Cupos limitados</text>
  </g>
  
  <!-- Logo + QR 3D -->
  <g transform="translate(1680,60)" filter="url(#sh-3d)">
    <rect x="4" y="4" width="160" height="60" rx="12" fill="rgba(0,0,0,0.3)"/>
    <rect x="0" y="0" width="160" height="60" rx="12" fill="rgba(255,255,255,0.1)"/>
    <rect x="0" y="0" width="160" height="60" rx="12" fill="none" stroke="rgba(255,255,255,0.2)" stroke-width="1.5"/>
    <text x="80" y="40" text-anchor="middle" fill="#FFFFFF" font-family="Inter, system-ui, -apple-system" font-size="20" font-weight="800">TU MARCA</text>
  </g>
  <g transform="translate(1620,870)" filter="url(#sh-3d)">
    <rect x="6" y="6" width="180" height="180" rx="20" fill="rgba(0,0,0,0.4)"/>
    <rect x="0" y="0" width="180" height="180" rx="20" fill="rgba(255,255,255,0.1)"/>
    <rect x="0" y="0" width="180" height="180" rx="20" fill="none" stroke="rgba(255,255,255,0.2)" stroke-width="2"/>
    <text x="90" y="100" text-anchor="middle" fill="#FFFFFF" font-family="Inter, system-ui, -apple-system" font-size="16" font-weight="700">QR → https://tu-dominio.com/webinar?utm_source=youtube&utm_medium=preroll&utm_campaign=nov_2025&utm_content=all_variants</text>
  </g>
</svg>

