<svg xmlns="http://www.w3.org/2000/svg" width="1920" height="1080">
  <defs>
    <!-- Fondo negro profundo -->
    <linearGradient id="bg" x1="0%" y1="0%" x2="100%" y2="100%">
      <stop offset="0%" stop-color="#000000"/>
      <stop offset="50%" stop-color="#050510"/>
      <stop offset="100%" stop-color="#000000"/>
    </linearGradient>
    
    <!-- Gradiente neon cyan -->
    <linearGradient id="neon-cyan" x1="0%" y1="0%" x2="100%" y2="0%">
      <stop offset="0%" stop-color="#00FFFF"/>
      <stop offset="50%" stop-color="#00CCFF"/>
      <stop offset="100%" stop-color="#0099FF"/>
    </linearGradient>
    
    <!-- Gradiente neon magenta -->
    <linearGradient id="neon-magenta" x1="0%" y1="0%" x2="100%" y2="0%">
      <stop offset="0%" stop-color="#FF00FF"/>
      <stop offset="50%" stop-color="#FF00CC"/>
      <stop offset="100%" stop-color="#CC00FF"/>
    </linearGradient>
    
    <!-- Gradiente neon verde -->
    <linearGradient id="neon-green" x1="0%" y1="0%" x2="100%" y2="0%">
      <stop offset="0%" stop-color="#00FF00"/>
      <stop offset="50%" stop-color="#00FF66"/>
      <stop offset="100%" stop-color="#00FF99"/>
    </linearGradient>
    
    <!-- Filtro de glow neon intenso -->
    <filter id="neon-glow-intense" x="-200%" y="-200%" width="500%" height="500%">
      <feGaussianBlur in="SourceAlpha" stdDeviation="10" result="blur"/>
      <feOffset in="blur" dx="0" dy="0" result="offsetBlur"/>
      <feFlood flood-color="#00FFFF" flood-opacity="0.8"/>
      <feComposite in2="offsetBlur" operator="in" result="cyan"/>
      <feFlood flood-color="#FF00FF" flood-opacity="0.6"/>
      <feComposite in2="offsetBlur" operator="in" result="magenta"/>
      <feMerge>
        <feMergeNode in="cyan"/>
        <feMergeNode in="magenta"/>
        <feMergeNode in="SourceGraphic"/>
      </feMerge>
    </filter>
    
    <!-- Filtro de sombra neon -->
    <filter id="neon-shadow" x="-100%" y="-100%" width="300%" height="300%">
      <feGaussianBlur in="SourceAlpha" stdDeviation="12"/>
      <feOffset dx="0" dy="16" result="offsetblur"/>
      <feComponentTransfer>
        <feFuncA type="linear" slope="0.5"/>
      </feComponentTransfer>
      <feMerge>
        <feMergeNode/>
        <feMergeNode in="SourceGraphic"/>
      </feMerge>
    </filter>
    
    <style>
      @font-face { font-family: Inter; src: local('Inter'), local('Arial'); }
      .headline-main { font: 900 88px/1.05 Inter, system-ui, -apple-system; fill: #FFFFFF; letter-spacing: -1px; filter: url(#neon-glow-intense); }
      .subheadline { font: 600 34px/1.35 Inter, system-ui, -apple-system; fill: #00FFFF; filter: url(#neon-glow-intense); }
      .chip-text { font: 800 32px/1.2 Inter, system-ui, -apple-system; fill: #FFFFFF; filter: url(#neon-glow-intense); }
      .benefit-text { font: 500 30px/1.4 Inter, system-ui, -apple-system; fill: #E0FFFF; }
      .cta-main { font: 900 50px/1 Inter, system-ui, -apple-system; fill: #000000; text-anchor: middle; }
      .badge-text { font: 900 26px/1.2 Inter, system-ui, -apple-system; fill: #FFFFFF; text-anchor: middle; }
    </style>
    
    <!-- Grid pattern neon -->
    <pattern id="neon-grid" width="60" height="60" patternUnits="userSpaceOnUse">
      <path d="M 60 0 L 0 0 0 60" fill="none" stroke="url(#neon-cyan)" stroke-width="1.5" opacity="0.6" filter="url(#neon-glow-intense)"/>
      <circle cx="30" cy="30" r="2" fill="url(#neon-cyan)" opacity="0.8" filter="url(#neon-glow-intense)"/>
      <circle cx="0" cy="0" r="3" fill="url(#neon-magenta)" filter="url(#neon-glow-intense)"/>
      <circle cx="60" cy="60" r="3" fill="url(#neon-green)" filter="url(#neon-glow-intense)"/>
    </pattern>
    
    <!-- Línea grid horizontal -->
    <g id="grid-line-h">
      <line x1="0" y1="0" x2="200" y2="0" stroke="url(#neon-cyan)" stroke-width="2" filter="url(#neon-glow-intense)"/>
      <circle cx="200" cy="0" r="4" fill="url(#neon-cyan)" filter="url(#neon-glow-intense)"/>
    </g>
    
    <!-- Línea grid vertical -->
    <g id="grid-line-v">
      <line x1="0" y1="0" x2="0" y2="200" stroke="url(#neon-magenta)" stroke-width="2" filter="url(#neon-glow-intense)"/>
      <circle cx="0" cy="200" r="4" fill="url(#neon-magenta)" filter="url(#neon-glow-intense)"/>
    </g>
    
    <!-- Nodo de grid -->
    <g id="grid-node">
      <circle cx="0" cy="0" r="8" fill="url(#neon-cyan)" filter="url(#neon-glow-intense)"/>
      <circle cx="0" cy="0" r="4" fill="#FFFFFF"/>
      <line x1="-12" y1="0" x2="12" y2="0" stroke="url(#neon-magenta)" stroke-width="2" filter="url(#neon-glow-intense)"/>
      <line x1="0" y1="-12" x2="0" y2="12" stroke="url(#neon-magenta)" stroke-width="2" filter="url(#neon-glow-intense)"/>
    </g>
    
    <!-- CTA con grid neon -->
    <g id="cta-neon-grid">
      <rect x="0" y="0" width="540" height="114" rx="16" fill="rgba(0,0,0,0.9)"/>
      <rect x="0" y="0" width="540" height="114" rx="16" fill="url(#neon-grid)" opacity="0.3"/>
      <rect x="0" y="0" width="540" height="57" rx="16" fill="rgba(0,255,255,0.1)"/>
      <rect x="0" y="0" width="540" height="114" rx="16" fill="none" stroke="url(#neon-cyan)" stroke-width="4" filter="url(#neon-glow-intense)"/>
      <!-- Líneas internas del grid -->
      <line x1="135" y1="0" x2="135" y2="114" stroke="url(#neon-magenta)" stroke-width="1" opacity="0.5" filter="url(#neon-glow-intense)"/>
      <line x1="270" y1="0" x2="270" y2="114" stroke="url(#neon-magenta)" stroke-width="1" opacity="0.5" filter="url(#neon-glow-intense)"/>
      <line x1="405" y1="0" x2="405" y2="114" stroke="url(#neon-magenta)" stroke-width="1" opacity="0.5" filter="url(#neon-glow-intense)"/>
      <line x1="0" y1="57" x2="540" y2="57" stroke="url(#neon-green)" stroke-width="1" opacity="0.5" filter="url(#neon-glow-intense)"/>
    </g>
  </defs>
  
  <rect width="1920" height="1080" fill="url(#bg)"/>
  
  <!-- Grid neon de fondo completo -->
  <rect width="1920" height="1080" fill="url(#neon-grid)" opacity="0.4"/>
  
  <!-- Líneas grid decorativas -->
  <g opacity="0.6">
    <use href="#grid-line-h" transform="translate(200,150)"/>
    <use href="#grid-line-h" transform="translate(600,200)"/>
    <use href="#grid-line-h" transform="translate(1200,180)"/>
    <use href="#grid-line-v" transform="translate(300,150)"/>
    <use href="#grid-line-v" transform="translate(900,250)"/>
    <use href="#grid-line-v" transform="translate(1500,200)"/>
  </g>
  
  <!-- Nodos de grid decorativos -->
  <g opacity="0.8">
    <use href="#grid-node" transform="translate(400,250)"/>
    <use href="#grid-node" transform="translate(800,300)"/>
    <use href="#grid-node" transform="translate(1200,280)"/>
    <use href="#grid-node" transform="translate(1600,320)"/>
    <use href="#grid-node" transform="translate(300,850)"/>
    <use href="#grid-node" transform="translate(700,900)"/>
    <use href="#grid-node" transform="translate(1100,880)"/>
    <use href="#grid-node" transform="translate(1500,920)"/>
  </g>
  
  <!-- Zona segura YouTube -->
  <rect x="120" y="80" width="1680" height="920" rx="24" fill="none" stroke="url(#neon-cyan)" stroke-width="3" opacity="0.3" filter="url(#neon-glow-intense)"/>
  
  <!-- Grid lines en zona segura -->
  <g opacity="0.2">
    <line x1="120" y1="500" x2="1800" y2="500" stroke="url(#neon-magenta)" stroke-width="1" filter="url(#neon-glow-intense)"/>
    <line x1="960" y1="80" x2="960" y2="1000" stroke="url(#neon-green)" stroke-width="1" filter="url(#neon-glow-intense)"/>
  </g>
  
  <!-- Header con grid neon -->
  <g transform="translate(120,80)" filter="url(#neon-shadow)">
    <rect x="0" y="0" width="1240" height="88" rx="14" fill="rgba(0,0,0,0.8)"/>
    <rect x="0" y="0" width="1240" height="88" rx="14" fill="url(#neon-grid)" opacity="0.2"/>
    <rect x="0" y="0" width="1240" height="44" rx="14" fill="rgba(0,255,255,0.1)"/>
    <rect x="0" y="0" width="1240" height="88" rx="14" fill="none" stroke="url(#neon-cyan)" stroke-width="4" filter="url(#neon-glow-intense)"/>
    <!-- Nodos en header -->
    <use href="#grid-node" transform="translate(100,44) scale(0.6)"/>
    <use href="#grid-node" transform="translate(1140,44) scale(0.6)"/>
    <text x="620" y="62" text-anchor="middle" class="headline-main">[FECHA] [HORA]</text>
  </g>
  
  <!-- Título principal -->
  <g transform="translate(120,240)" filter="url(#neon-shadow)">
    <text x="960" y="0" text-anchor="middle" class="headline-main">Webinar Exclusivo</text>
    <text x="960" y="60" text-anchor="middle" class="subheadline">Descubre el Futuro de la IA</text>
  </g>
  
  <!-- Chip fecha/hora neon -->
  <g transform="translate(1580,80)" filter="url(#neon-shadow)">
    <rect x="0" y="0" width="220" height="64" rx="18" fill="rgba(0,0,0,0.9)" stroke="url(#neon-cyan)" stroke-width="4" filter="url(#neon-glow-intense)"/>
    <use href="#grid-node" transform="translate(15,32) scale(0.4)"/>
    <use href="#grid-node" transform="translate(205,32) scale(0.4)"/>
    <text x="110" y="42" text-anchor="middle" class="chip-text">[HORA]</text>
  </g>
  
  <!-- Benefits con grid neon -->
  <g transform="translate(120,400)">
    <g transform="translate(0,0)" filter="url(#neon-shadow)">
      <rect x="0" y="0" width="420" height="120" rx="16" fill="rgba(0,0,0,0.7)"/>
      <rect x="0" y="0" width="420" height="120" rx="16" fill="url(#neon-grid)" opacity="0.15"/>
      <rect x="0" y="0" width="420" height="120" rx="16" fill="none" stroke="url(#neon-cyan)" stroke-width="3" filter="url(#neon-glow-intense)"/>
      <use href="#grid-node" transform="translate(40,40) scale(0.5)"/>
      <text x="80" y="45" class="benefit-text">✓ Beneficio Principal 1</text>
      <text x="80" y="85" class="benefit-text" fill="#B8FFFF">Descripción breve y poderosa</text>
    </g>
    <g transform="translate(460,0)" filter="url(#neon-shadow)">
      <rect x="0" y="0" width="420" height="120" rx="16" fill="rgba(0,0,0,0.7)"/>
      <rect x="0" y="0" width="420" height="120" rx="16" fill="url(#neon-grid)" opacity="0.15"/>
      <rect x="0" y="0" width="420" height="120" rx="16" fill="none" stroke="url(#neon-magenta)" stroke-width="3" filter="url(#neon-glow-intense)"/>
      <use href="#grid-node" transform="translate(40,40) scale(0.5)"/>
      <text x="80" y="45" class="benefit-text">✓ Beneficio Principal 2</text>
      <text x="80" y="85" class="benefit-text" fill="#FFB8FF">Descripción breve y poderosa</text>
    </g>
    <g transform="translate(920,0)" filter="url(#neon-shadow)">
      <rect x="0" y="0" width="420" height="120" rx="16" fill="rgba(0,0,0,0.7)"/>
      <rect x="0" y="0" width="420" height="120" rx="16" fill="url(#neon-grid)" opacity="0.15"/>
      <rect x="0" y="0" width="420" height="120" rx="16" fill="none" stroke="url(#neon-green)" stroke-width="3" filter="url(#neon-glow-intense)"/>
      <use href="#grid-node" transform="translate(40,40) scale(0.5)"/>
      <text x="80" y="45" class="benefit-text">✓ Beneficio Principal 3</text>
      <text x="80" y="85" class="benefit-text" fill="#B8FFB8">Descripción breve y poderosa</text>
    </g>
  </g>
  
  <!-- CTA con grid neon ultra destacado -->
  <g transform="translate(690,600)" filter="url(#neon-shadow)">
    <use href="#cta-neon-grid"/>
    <text x="270" y="72" text-anchor="middle" class="cta-main">REGISTRARME AHORA</text>
    <polygon points="490,57 510,57 500,67 510,57 500,47" fill="#FFFFFF" opacity="0.9"/>
  </g>
  
  <!-- Badges con grid neon -->
  <g transform="translate(120,760)">
    <g filter="url(#neon-shadow)">
      <rect x="0" y="0" width="200" height="56" rx="14" fill="rgba(0,255,255,0.2)" stroke="url(#neon-cyan)" stroke-width="3" filter="url(#neon-glow-intense)"/>
      <use href="#grid-node" transform="translate(15,28) scale(0.3)"/>
      <text x="100" y="38" text-anchor="middle" class="badge-text">🔥 Cupos limitados</text>
    </g>
    <g transform="translate(240,0)" filter="url(#neon-shadow)">
      <rect x="0" y="0" width="200" height="56" rx="14" fill="rgba(255,0,255,0.2)" stroke="url(#neon-magenta)" stroke-width="3" filter="url(#neon-glow-intense)"/>
      <use href="#grid-node" transform="translate(15,28) scale(0.3)"/>
      <text x="100" y="38" text-anchor="middle" class="badge-text">🎤 En vivo + Q&A</text>
    </g>
  </g>
  
  <!-- Logo placeholder con grid -->
  <g transform="translate(1580,920)">
    <rect x="0" y="0" width="220" height="80" rx="12" fill="rgba(255,255,255,0.1)" stroke="url(#neon-cyan)" stroke-width="3" opacity="0.6" filter="url(#neon-glow-intense)"/>
    <rect x="0" y="0" width="220" height="80" rx="12" fill="url(#neon-grid)" opacity="0.1"/>
    <text x="110" y="50" text-anchor="middle" fill="#FFFFFF" font-family="Inter" font-size="18" font-weight="600">TU LOGO</text>
  </g>
  
  <!-- QR con grid neon -->
  <g transform="translate(120,920)">
    <rect x="0" y="0" width="80" height="80" rx="10" fill="#FFFFFF" stroke="url(#neon-cyan)" stroke-width="4" filter="url(#neon-glow-intense)"/>
    <rect x="0" y="0" width="80" height="80" rx="10" fill="url(#neon-grid)" opacity="0.2"/>
    <text x="40" y="95" text-anchor="middle" fill="#FFFFFF" font-family="Inter" font-size="12" font-weight="500">[URL]</text>
  </g>
  
  <!-- Pie legal -->
  <text x="960" y="1060" text-anchor="middle" fill="#666666" font-family="Inter" font-size="14" font-weight="400">Términos y condiciones aplican</text>
</svg>
