<svg xmlns="http://www.w3.org/2000/svg" width="1080" height="1080">
  <defs>
    <linearGradient id="bg" x1="0" y1="0" x2="1" y2="1">
      <stop offset="0%" stop-color="#071A14"/>
      <stop offset="100%" stop-color="#0E2A1F"/>
    </linearGradient>
    <linearGradient id="accent" x1="0" y1="0" x2="1" y2="0">
      <stop offset="0%" stop-color="#34D399"/>
      <stop offset="100%" stop-color="#10B981"/>
    </linearGradient>
    <filter id="sh" x="-50%" y="-50%" width="200%" height="200%">
      <feGaussianBlur in="SourceAlpha" stdDeviation="4"/>
      <feOffset dx="0" dy="4" result="offsetblur"/>
      <feComponentTransfer>
        <feFuncA type="linear" slope="0.3"/>
      </feComponentTransfer>
      <feMerge>
        <feMergeNode/>
        <feMergeNode in="SourceGraphic"/>
      </feMerge>
    </filter>
    <style>
      @font-face { font-family: Inter; src: local('Inter'), local('Arial'); }
      .headline { font: 900 56px/1.1 Inter, system-ui, -apple-system; fill: #EFFFF8; text-anchor: middle; letter-spacing: -0.5px; }
      .benefit-title { font: 800 24px/1.2 Inter, system-ui, -apple-system; fill: #EFFFF8; }
      .benefit-desc { font: 500 18px/1.4 Inter, system-ui, -apple-system; fill: #B7F5E0; }
      .benefit-sub { font: 400 16px/1.4 Inter, system-ui, -apple-system; fill: #9FF5EA; }
      .cta-text { font: 900 32px/1 Inter, system-ui, -apple-system; fill: #062A2D; text-anchor: middle; }
      .date { font: 800 22px/1.2 Inter, system-ui, -apple-system; fill: #DFF7C7; text-anchor: middle; }
    </style>
  </defs>
  
  <rect width="1080" height="1080" fill="url(#bg)"/>
  
  <!-- Elementos decorativos -->
  <g opacity="0.12">
    <circle cx="150" cy="150" r="80" fill="#34D399"/>
    <circle cx="930" cy="930" r="90" fill="#10B981"/>
  </g>
  
  <!-- Header -->
  <g transform="translate(60,50)" filter="url(#sh)">
    <rect x="0" y="0" width="960" height="76" rx="12" fill="url(#accent)"/>
    <text x="30" y="50" fill="#062A2D" font-family="Inter, system-ui, -apple-system" font-size="28" font-weight="900">
      Webinar gratis: Cómo doblar tus ventas online
    </text>
  </g>
  
  <!-- Headline -->
  <text x="540" y="200" class="headline">Lo que aprenderás:</text>
  
  <!-- Chips fecha/hora -->
  <g transform="translate(540,260)">
    <rect x="-200" y="-32" width="200" height="64" rx="10" fill="#0D2A20" stroke="#34D399" stroke-width="2"/>
    <text x="-100" y="8" class="date">15 Nov 2025</text>
    <rect x="20" y="-32" width="180" height="64" rx="10" fill="#0D2A20" stroke="#34D399" stroke-width="2"/>
    <text x="110" y="8" class="date">18:00</text>
  </g>
  
  <!-- Benefits destacados (3 cards) -->
  <g transform="translate(540,360)">
    <!-- Benefit 1 -->
    <g transform="translate(-320,-60)" filter="url(#sh)">
      <rect x="0" y="0" width="280" height="140" rx="16" fill="rgba(255,255,255,0.08)" stroke="#34D399" stroke-width="2"/>
      <circle cx="35" cy="70" r="22" fill="#34D399" opacity="0.2"/>
      <circle cx="35" cy="70" r="12" fill="#34D399"/>
      <circle cx="35" cy="70" r="5" fill="#FFFFFF"/>
      <text x="70" y="45" class="benefit-title">Prompts que reducen CPA</text>
      <text x="70" y="75" class="benefit-desc">Estrategias probadas</text>
      <text x="70" y="100" class="benefit-sub">Ejemplos + plantillas</text>
    </g>
    
    <!-- Benefit 2 -->
    <g transform="translate(40,-60)" filter="url(#sh)">
      <rect x="0" y="0" width="280" height="140" rx="16" fill="rgba(255,255,255,0.08)" stroke="#34D399" stroke-width="2"/>
      <circle cx="35" cy="70" r="22" fill="#34D399" opacity="0.2"/>
      <circle cx="35" cy="70" r="12" fill="#34D399"/>
      <circle cx="35" cy="70" r="5" fill="#FFFFFF"/>
      <text x="70" y="45" class="benefit-title">Creatividades con IA</text>
      <text x="70" y="75" class="benefit-desc">Genera variaciones</text>
      <text x="70" y="100" class="benefit-sub">Sin diseño</text>
    </g>
    
    <!-- Benefit 3 -->
    <g transform="translate(-140,80)" filter="url(#sh)">
      <rect x="0" y="0" width="280" height="140" rx="16" fill="rgba(255,255,255,0.08)" stroke="#34D399" stroke-width="2"/>
      <circle cx="35" cy="70" r="22" fill="#34D399" opacity="0.2"/>
      <circle cx="35" cy="70" r="12" fill="#34D399"/>
      <circle cx="35" cy="70" r="5" fill="#FFFFFF"/>
      <text x="70" y="45" class="benefit-title">Automatizaciones</text>
      <text x="70" y="75" class="benefit-desc">CRM y workflows</text>
      <text x="70" y="100" class="benefit-sub">Sin código</text>
    </g>
  </g>
  
  <!-- Bonus -->
  <g transform="translate(540,630)" filter="url(#sh)">
    <rect x="-420" y="-35" width="840" height="70" rx="12" fill="rgba(52,211,153,0.15)" stroke="#34D399" stroke-width="2"/>
    <text x="-380" y="-5" fill="#EFFFF8" font-family="Inter, system-ui, -apple-system" font-size="20" font-weight="700">🎁 Bonus:</text>
    <text x="-380" y="20" fill="#B7F5E0" font-family="Inter, system-ui, -apple-system" font-size="18">Plantillas descargables + comunidad privada</text>
  </g>
  
  <!-- CTA -->
  <g transform="translate(540,740)" filter="url(#sh)">
    <rect x="-220" y="-42" width="440" height="84" rx="14" fill="url(#accent)"/>
    <text x="0" y="8" class="cta-text">Reserva tu plaza</text>
    <path d="M190,0 L210,0 L200,-10 L220,0 L200,10 L210,0 Z" fill="#062A2D" opacity="0.8"/>
  </g>
  
  <!-- Badge -->
  <g transform="translate(780,170)" filter="url(#sh)">
    <rect x="0" y="0" width="180" height="48" rx="12" fill="#FF3B3B"/>
    <text x="90" y="32" text-anchor="middle" fill="#FFFFFF" font-family="Inter" font-size="20" font-weight="900">Cupos limitados</text>
  </g>
  
  <!-- Logo -->
  <g transform="translate(860,50)">
    <rect x="0" y="0" width="160" height="60" rx="8" fill="rgba(255,255,255,0.10)" stroke="rgba(255,255,255,0.20)"/>
    <text x="80" y="40" text-anchor="middle" fill="#EFFFF8" font-family="Inter, system-ui, -apple-system" font-size="18" font-weight="800">TU MARCA</text>
  </g>
  
  <!-- QR -->
  <g transform="translate(780,930)" filter="url(#sh)">
    <rect x="0" y="0" width="160" height="160" rx="10" fill="rgba(255,255,255,0.08)" stroke="rgba(255,255,255,0.2)"/>
    <text x="80" y="90" text-anchor="middle" fill="#EFFFF8" font-family="Inter, system-ui, -apple-system" font-size="14" font-weight="700">QR → https://tu-dominio.com/webinar?utm_source=youtube&utm_medium=preroll&utm_campaign=nov_2025&utm_content=all_variants</text>
  </g>
</svg>