<svg xmlns="http://www.w3.org/2000/svg" width="1920" height="1080">
  <defs>
    <linearGradient id="bg" x1="0%" y1="0%" x2="100%" y2="100%">
      <stop offset="0%" stop-color="#1A1F35"/>
      <stop offset="50%" stop-color="#2D3563"/>
      <stop offset="100%" stop-color="#1A1F35"/>
    </linearGradient>
    <linearGradient id="accent" x1="0%" y1="0%" x2="100%" y2="0%">
      <stop offset="0%" stop-color="#6366F1"/>
      <stop offset="100%" stop-color="#8B5CF6"/>
    </linearGradient>
    <filter id="blur-bg" x="-50%" y="-50%" width="200%" height="200%">
      <feGaussianBlur in="SourceGraphic" stdDeviation="20"/>
    </filter>
    <filter id="glass" x="-50%" y="-50%" width="200%" height="200%">
      <feGaussianBlur in="SourceAlpha" stdDeviation="8"/>
      <feOffset dx="0" dy="4" result="offsetblur"/>
      <feComponentTransfer>
        <feFuncA type="linear" slope="0.15"/>
      </feComponentTransfer>
      <feMerge>
        <feMergeNode/>
        <feMergeNode in="SourceGraphic"/>
      </feMerge>
    </filter>
    <filter id="glow-purple" x="-150%" y="-150%" width="400%" height="400%">
      <feGaussianBlur stdDeviation="12" result="coloredBlur"/>
      <feMerge>
        <feMergeNode in="coloredBlur"/>
        <feMergeNode in="SourceGraphic"/>
      </feMerge>
    </filter>
    <style>
      @font-face { font-family: Inter; src: local('Inter'), local('Arial'); }
      .headline { font: 900 84px/1.1 Inter, system-ui, -apple-system; fill: #FFFFFF; letter-spacing: -1px; }
      .subhead { font: 500 32px/1.4 Inter, system-ui, -apple-system; fill: #E0E7FF; }
      .glass-text { font: 600 28px/1.3 Inter, system-ui, -apple-system; fill: #FFFFFF; }
      .cta-text { font: 900 52px/1 Inter, system-ui, -apple-system; fill: #FFFFFF; text-anchor: middle; }
    </style>
  </defs>
  
  <rect width="1920" height="1080" fill="url(#bg)"/>
  
  <!-- Fondos borrosos para efecto glass -->
  <g opacity="0.6" filter="url(#blur-bg)">
    <rect x="200" y="150" width="600" height="400" rx="30" fill="#6366F1"/>
    <rect x="1120" y="530" width="600" height="400" rx="30" fill="#8B5CF6"/>
  </g>
  
  <!-- Elementos decorativos -->
  <g opacity="0.2">
    <circle cx="300" cy="200" r="120" fill="#6366F1"/>
    <circle cx="1620" cy="880" r="140" fill="#8B5CF6"/>
  </g>
  
  <!-- Header glass morphism -->
  <g transform="translate(120,80)" filter="url(#glass)">
    <rect x="0" y="0" width="1680" height="100" rx="20" fill="rgba(255,255,255,0.1)"/>
    <rect x="0" y="0" width="1680" height="100" rx="20" fill="none" stroke="rgba(255,255,255,0.2)" stroke-width="1"/>
    <text x="840" y="66" text-anchor="middle" fill="#FFFFFF" font-family="Inter, system-ui, -apple-system" font-size="42" font-weight="900">
      Webinar gratis: Cómo doblar tus ventas online
    </text>
  </g>
  
  <!-- Headline -->
  <g transform="translate(160,260)">
    <text x="0" y="0" class="headline">Transforma tu marketing</text>
    <text x="0" y="60" class="subhead">Con IA y automatizaciones que escalan</text>
  </g>
  
  <!-- Cards glass morphism -->
  <g transform="translate(160,400)">
    <!-- Card 1 -->
    <g transform="translate(0,0)" filter="url(#glass)">
      <rect x="0" y="0" width="500" height="180" rx="24" fill="rgba(255,255,255,0.08)"/>
      <rect x="0" y="0" width="500" height="180" rx="24" fill="none" stroke="rgba(255,255,255,0.15)" stroke-width="1.5"/>
      <rect x="0" y="0" width="500" height="60" rx="24" fill="rgba(255,255,255,0.12)"/>
      <text x="30" y="42" class="glass-text" fill="#6366F1">📊 Prompts optimizados</text>
      <text x="30" y="85" fill="#E0E7FF" font-family="Inter" font-size="22">Reduce CPA hasta -35%</text>
      <text x="30" y="115" fill="#A5B4FC" font-family="Inter" font-size="20">Con plantillas listas</text>
    </g>
    
    <!-- Card 2 -->
    <g transform="translate(540,0)" filter="url(#glass)">
      <rect x="0" y="0" width="500" height="180" rx="24" fill="rgba(255,255,255,0.08)"/>
      <rect x="0" y="0" width="500" height="180" rx="24" fill="none" stroke="rgba(255,255,255,0.15)" stroke-width="1.5"/>
      <rect x="0" y="0" width="500" height="60" rx="24" fill="rgba(255,255,255,0.12)"/>
      <text x="30" y="42" class="glass-text" fill="#8B5CF6">🎨 Creatividades IA</text>
      <text x="30" y="85" fill="#E0E7FF" font-family="Inter" font-size="22">Genera variaciones en minutos</text>
      <text x="30" y="115" fill="#A5B4FC" font-family="Inter" font-size="20">Sin habilidades de diseño</text>
    </g>
    
    <!-- Card 3 -->
    <g transform="translate(1080,0)" filter="url(#glass)">
      <rect x="0" y="0" width="500" height="180" rx="24" fill="rgba(255,255,255,0.08)"/>
      <rect x="0" y="0" width="500" height="180" rx="24" fill="none" stroke="rgba(255,255,255,0.15)" stroke-width="1.5"/>
      <rect x="0" y="0" width="500" height="60" rx="24" fill="rgba(255,255,255,0.12)"/>
      <text x="30" y="42" class="glass-text" fill="#6366F1">⚡ Automatizaciones</text>
      <text x="30" y="85" fill="#E0E7FF" font-family="Inter" font-size="22">CRM y workflows sin código</text>
      <text x="30" y="115" fill="#A5B4FC" font-family="Inter" font-size="20">Setup en 1 hora</text>
    </g>
  </g>
  
  <!-- Chips fecha/hora glass -->
  <g transform="translate(160,620)">
    <g filter="url(#glass)">
      <rect x="0" y="-40" width="420" height="80" rx="16" fill="rgba(255,255,255,0.1)"/>
      <rect x="0" y="-40" width="420" height="80" rx="16" fill="none" stroke="rgba(255,255,255,0.2)" stroke-width="1.5"/>
      <text x="210" y="12" text-anchor="middle" fill="#FFFFFF" font-family="Inter, system-ui, -apple-system" font-size="30" font-weight="700">[FECHA]</text>
    </g>
    <g transform="translate(440,0)" filter="url(#glass)">
      <rect x="0" y="-40" width="380" height="80" rx="16" fill="rgba(255,255,255,0.1)"/>
      <rect x="0" y="-40" width="380" height="80" rx="16" fill="none" stroke="rgba(255,255,255,0.2)" stroke-width="1.5"/>
      <text x="190" y="12" text-anchor="middle" fill="#FFFFFF" font-family="Inter, system-ui, -apple-system" font-size="30" font-weight="700">[HORA]</text>
    </g>
  </g>
  
  <!-- CTA glass con glow -->
  <g transform="translate(160,720)" filter="url(#glow-purple)">
    <rect x="0" y="0" width="580" height="120" rx="24" fill="url(#accent)" opacity="0.9"/>
    <rect x="0" y="0" width="580" height="120" rx="24" fill="rgba(255,255,255,0.15)"/>
    <rect x="0" y="0" width="580" height="120" rx="24" fill="none" stroke="rgba(255,255,255,0.3)" stroke-width="2"/>
    <text x="290" y="75" text-anchor="middle" class="cta-text">Únete gratis</text>
  </g>
  
  <!-- Badge glass -->
  <g transform="translate(1540,240)" filter="url(#glass)">
    <rect x="0" y="0" width="260" height="70" rx="18" fill="rgba(255,59,59,0.3)"/>
    <rect x="0" y="0" width="260" height="70" rx="18" fill="none" stroke="rgba(255,255,255,0.3)" stroke-width="1.5"/>
    <text x="130" y="45" text-anchor="middle" fill="#FFFFFF" font-family="Inter, system-ui, -apple-system" font-size="24" font-weight="900">Cupos limitados</text>
  </g>
  
  <!-- Logo + QR glass -->
  <g transform="translate(1680,60)" filter="url(#glass)">
    <rect x="0" y="0" width="160" height="60" rx="12" fill="rgba(255,255,255,0.08)"/>
    <rect x="0" y="0" width="160" height="60" rx="12" fill="none" stroke="rgba(255,255,255,0.2)" stroke-width="1"/>
    <text x="80" y="40" text-anchor="middle" fill="#FFFFFF" font-family="Inter, system-ui, -apple-system" font-size="20" font-weight="800">TU LOGO</text>
  </g>
  <g transform="translate(1620,870)" filter="url(#glass)">
    <rect x="0" y="0" width="180" height="180" rx="20" fill="rgba(255,255,255,0.08)"/>
    <rect x="0" y="0" width="180" height="180" rx="20" fill="none" stroke="rgba(255,255,255,0.2)" stroke-width="1.5"/>
    <text x="90" y="100" text-anchor="middle" fill="#FFFFFF" font-family="Inter, system-ui, -apple-system" font-size="16" font-weight="700">QR → [URL]</text>
  </g>
</svg>
